<svg width="28" height="18" viewBox="0 0 28 18" fill="none" xmlns="http://www.w3.org/2000/svg">
<path d="M22.2475 3.29474C20.723 3.29669 19.2615 3.8775 18.1835 4.90983C17.1055 5.94215 16.499 7.34173 16.497 8.80165C16.497 8.84572 16.497 8.88979 16.497 8.93385C16.497 8.97792 16.497 8.97792 16.497 8.99996C16.4696 10.7854 15.7097 12.4889 14.3815 13.7422C13.0533 14.9955 11.2636 15.6981 9.39891 15.6981C7.53425 15.6981 5.74446 14.9955 4.4163 13.7422C3.08813 12.4889 2.32824 10.7854 2.30083 8.99996V2.20335H9.39967C9.70478 2.20335 9.99739 2.08728 10.2131 1.88068C10.4289 1.67407 10.5501 1.39386 10.5501 1.10168C10.5501 0.809493 10.4289 0.529278 10.2131 0.322674C9.99739 0.116069 9.70478 8.70772e-09 9.39967 0H1.15042C0.845307 0 0.552694 0.116069 0.336949 0.322674C0.121204 0.529278 3.54707e-10 0.809493 3.54707e-10 1.10168V8.99996C-1.87954e-05 11.0725 0.746948 13.0816 2.11473 14.6878C3.48251 16.2941 5.38728 17.399 7.50731 17.816C9.62733 18.2329 11.8327 17.9364 13.7508 16.9765C15.669 16.0166 17.1824 14.4522 18.0355 12.5474C18.6851 13.2174 19.4988 13.7219 20.403 14.0155C21.3072 14.3091 22.2736 14.3824 23.2148 14.2289C24.156 14.0755 25.0425 13.7 25.7943 13.1364C26.5461 12.5727 27.1395 11.8387 27.521 11.0006C27.9025 10.1624 28.0601 9.24646 27.9795 8.33541C27.8989 7.42435 27.5827 6.54684 27.0594 5.78207C26.5362 5.01729 25.8223 4.38932 24.9822 3.95483C24.1421 3.52033 23.2023 3.29297 22.2475 3.29328V3.29474ZM22.2475 12.1081C21.5649 12.1081 20.8977 11.9143 20.3301 11.5512C19.7626 11.188 19.3202 10.6718 19.059 10.0679C18.7978 9.46399 18.7294 8.79946 18.8626 8.15834C18.9958 7.51723 19.3245 6.92833 19.8071 6.46611C20.2898 6.0039 20.9047 5.68913 21.5742 5.5616C22.2437 5.43408 22.9376 5.49953 23.5683 5.74968C24.1989 5.99983 24.7379 6.42344 25.1171 6.96695C25.4964 7.51046 25.6988 8.14945 25.6988 8.80312C25.6976 9.67918 25.3335 10.519 24.6865 11.1383C24.0395 11.7576 23.1623 12.1059 22.2475 12.1067V12.1081Z" fill="#505F2E"/>
</svg>
