<svg width="16" height="16" viewBox="0 0 16 16" fill="none" xmlns="http://www.w3.org/2000/svg">
<path d="M14.255 5.9901L3.755 0.740096C3.34062 0.533853 2.87271 0.460429 2.41508 0.529835C1.95744 0.599241 1.53235 0.808099 1.19775 1.12793C0.863155 1.44777 0.635342 1.86301 0.545372 2.31705C0.455402 2.7711 0.507653 3.24184 0.695002 3.6651L2.495 7.6926C2.53584 7.78997 2.55688 7.8945 2.55688 8.0001C2.55688 8.10569 2.53584 8.21022 2.495 8.3076L0.695002 12.3351C0.542528 12.6776 0.478069 13.0528 0.507485 13.4266C0.536901 13.8004 0.659259 14.1609 0.863439 14.4754C1.06762 14.7898 1.34715 15.0483 1.67662 15.2273C2.00609 15.4062 2.37506 15.5 2.75 15.5001C3.10118 15.4966 3.44712 15.4146 3.7625 15.2601L14.2625 10.0101C14.635 9.82274 14.948 9.53558 15.1668 9.18066C15.3855 8.82574 15.5014 8.41702 15.5014 8.0001C15.5014 7.58318 15.3855 7.17446 15.1668 6.81954C14.948 6.46462 14.635 6.17746 14.2625 5.9901H14.255ZM13.5875 8.6676L3.0875 13.9176C2.94962 13.9838 2.7948 14.0063 2.64379 13.982C2.49278 13.9577 2.35281 13.8878 2.24264 13.7817C2.13246 13.6756 2.05736 13.5384 2.0274 13.3884C1.99744 13.2384 2.01405 13.0829 2.075 12.9426L3.8675 8.9151C3.89071 8.86132 3.91074 8.80622 3.9275 8.7501H9.095C9.29391 8.7501 9.48468 8.67108 9.62533 8.53043C9.76598 8.38977 9.845 8.19901 9.845 8.0001C9.845 7.80118 9.76598 7.61042 9.62533 7.46977C9.48468 7.32911 9.29391 7.2501 9.095 7.2501H3.9275C3.91074 7.19397 3.89071 7.13888 3.8675 7.0851L2.075 3.0576C2.01405 2.91732 1.99744 2.76176 2.0274 2.61177C2.05736 2.46179 2.13246 2.32455 2.24264 2.21846C2.35281 2.11237 2.49278 2.04249 2.64379 2.01821C2.7948 1.99393 2.94962 2.01639 3.0875 2.0826L13.5875 7.3326C13.7104 7.39553 13.8135 7.49116 13.8854 7.60893C13.9574 7.7267 13.9955 7.86206 13.9955 8.0001C13.9955 8.13813 13.9574 8.27349 13.8854 8.39126C13.8135 8.50904 13.7104 8.60466 13.5875 8.6676V8.6676Z" fill="#505F2E"/>
</svg>
