<svg width="42" height="42" viewBox="0 0 42 42" fill="none" xmlns="http://www.w3.org/2000/svg">
<path fill-rule="evenodd" clip-rule="evenodd" d="M21 0C9.40205 0 0 9.40205 0 21C0 32.5979 9.40205 42 21 42C32.5979 42 42 32.5979 42 21C42 9.40205 32.5979 0 21 0ZM16.3829 9.86764C17.5775 9.8133 17.9593 9.8 21.001 9.8H20.9976C24.0403 9.8 24.4205 9.8133 25.6153 9.86764C26.8076 9.92224 27.6219 10.1111 28.336 10.388C29.0733 10.6739 29.6963 11.0565 30.3193 11.6795C30.9424 12.3021 31.325 12.9269 31.612 13.6636C31.8874 14.3757 32.0764 15.1896 32.1324 16.3819C32.186 17.5767 32.2 17.9583 32.2 21.0001C32.2 24.0418 32.186 24.4227 32.1324 25.6174C32.0764 26.8092 31.8874 27.6233 31.612 28.3357C31.325 29.0721 30.9424 29.697 30.3193 30.3195C29.697 30.9425 29.0731 31.3261 28.3367 31.6123C27.624 31.8892 26.8092 32.0779 25.6169 32.1325C24.4222 32.187 24.0417 32.2003 20.9996 32.2003C17.9581 32.2003 17.5767 32.187 16.3819 32.1325C15.1898 32.0779 14.3757 31.8892 13.6631 31.6123C12.9269 31.3261 12.3021 30.9425 11.6798 30.3195C11.0569 29.697 10.6743 29.0721 10.388 28.3355C10.1112 27.6233 9.9225 26.8095 9.86764 25.6171C9.81356 24.4225 9.8 24.0418 9.8 21.0001C9.8 17.9583 9.814 17.5764 9.86746 16.3817C9.9211 15.1898 10.1101 14.3757 10.3877 13.6633C10.6747 12.9269 11.0575 12.3021 11.6805 11.6795C12.303 11.0568 12.9279 10.674 13.6645 10.388C14.3767 10.1111 15.1905 9.92224 16.3829 9.86764Z" fill="#AABA79"/>
<path fill-rule="evenodd" clip-rule="evenodd" d="M20.0153 12.0027C20.2065 12.0025 20.4122 12.0026 20.6342 12.0027L21.0002 12.0027C23.9314 12.0027 24.2789 12.0133 25.4364 12.0659C26.5068 12.1149 27.0877 12.2937 27.4747 12.444C27.9871 12.643 28.3523 12.881 28.7364 13.2653C29.1206 13.6495 29.3584 14.0156 29.5579 14.5279C29.7082 14.9145 29.8873 15.4955 29.936 16.5661C29.9886 17.7236 30 18.0712 30 21.0015C30 23.9318 29.9886 24.2794 29.936 25.437C29.887 26.5075 29.7082 27.0885 29.5579 27.4751C29.359 27.9874 29.1206 28.3523 28.7364 28.7364C28.3521 29.1207 27.9873 29.3586 27.4747 29.5576C27.0882 29.7086 26.5068 29.887 25.4364 29.9359C24.279 29.9886 23.9314 30 21.0002 30C18.0687 30 17.7212 29.9886 16.5639 29.9359C15.4935 29.8865 14.9125 29.7077 14.5253 29.5574C14.013 29.3584 13.647 29.1204 13.2628 28.7361C12.8785 28.3518 12.6407 27.9868 12.4412 27.4741C12.2909 27.0876 12.1118 26.5065 12.0631 25.436C12.0105 24.2786 12 23.9308 12 20.9987C12 18.0667 12.0105 17.7208 12.0631 16.5633C12.1121 15.4928 12.2909 14.9118 12.4412 14.5248C12.6402 14.0123 12.8785 13.6464 13.2628 13.2621C13.647 12.8778 14.013 12.6398 14.5253 12.4404C14.9123 12.2894 15.4935 12.111 16.5639 12.0618C17.5766 12.016 17.9692 12.0023 20.0153 12V12.0027ZM26.8604 13.8259C26.1331 13.8259 25.5429 14.4154 25.5429 15.1431C25.5429 15.8705 26.1331 16.4606 26.8604 16.4606C27.5877 16.4606 28.1778 15.8705 28.1778 15.1431C28.1778 14.4156 27.5877 13.8255 26.8604 13.8255V13.8259ZM15.3622 21.004C15.3622 17.8901 17.8864 15.3655 20.9999 15.3654C24.1135 15.3654 26.6372 17.8901 26.6372 21.004C26.6372 24.118 24.1137 26.6416 21.0002 26.6416C17.8866 26.6416 15.3622 24.118 15.3622 21.004Z" fill="#AABA79"/>
<path d="M21 17C23.209 17 25 18.7908 25 21C25 23.209 23.209 25 21 25C18.7908 25 17 23.209 17 21C17 18.7908 18.7908 17 21 17Z" fill="#AABA79"/>
</svg>
