<svg width="18" height="18" viewBox="0 0 18 18" fill="none" xmlns="http://www.w3.org/2000/svg">
<path d="M15.255 6.9901L4.755 1.7401C4.34062 1.53385 3.87271 1.46043 3.41508 1.52983C2.95744 1.59924 2.53235 1.8081 2.19775 2.12793C1.86316 2.44777 1.63534 2.86301 1.54537 3.31705C1.4554 3.7711 1.50765 4.24184 1.695 4.6651L3.495 8.6926C3.53584 8.78997 3.55688 8.8945 3.55688 9.0001C3.55688 9.10569 3.53584 9.21022 3.495 9.3076L1.695 13.3351C1.54253 13.6776 1.47807 14.0528 1.50749 14.4266C1.5369 14.8004 1.65926 15.1609 1.86344 15.4754C2.06762 15.7898 2.34715 16.0483 2.67662 16.2273C3.00609 16.4062 3.37506 16.5 3.75 16.5001C4.10118 16.4966 4.44712 16.4146 4.7625 16.2601L15.2625 11.0101C15.635 10.8227 15.948 10.5356 16.1668 10.1807C16.3855 9.82574 16.5014 9.41702 16.5014 9.0001C16.5014 8.58318 16.3855 8.17446 16.1668 7.81954C15.948 7.46462 15.635 7.17746 15.2625 6.9901H15.255ZM14.5875 9.6676L4.0875 14.9176C3.94962 14.9838 3.7948 15.0063 3.64379 14.982C3.49278 14.9577 3.35281 14.8878 3.24264 14.7817C3.13246 14.6756 3.05736 14.5384 3.0274 14.3884C2.99744 14.2384 3.01405 14.0829 3.075 13.9426L4.8675 9.9151C4.89071 9.86132 4.91074 9.80622 4.9275 9.7501H10.095C10.2939 9.7501 10.4847 9.67108 10.6253 9.53043C10.766 9.38977 10.845 9.19901 10.845 9.0001C10.845 8.80118 10.766 8.61042 10.6253 8.46977C10.4847 8.32911 10.2939 8.2501 10.095 8.2501H4.9275C4.91074 8.19397 4.89071 8.13888 4.8675 8.0851L3.075 4.0576C3.01405 3.91732 2.99744 3.76176 3.0274 3.61177C3.05736 3.46179 3.13246 3.32455 3.24264 3.21846C3.35281 3.11237 3.49278 3.04249 3.64379 3.01821C3.7948 2.99393 3.94962 3.01639 4.0875 3.0826L14.5875 8.3326C14.7104 8.39553 14.8135 8.49116 14.8854 8.60893C14.9574 8.7267 14.9955 8.86206 14.9955 9.0001C14.9955 9.13813 14.9574 9.27349 14.8854 9.39126C14.8135 9.50904 14.7104 9.60466 14.5875 9.6676Z" fill="#505F2E"/>
</svg>
