<svg width="35" height="23" viewBox="0 0 35 23" fill="none" xmlns="http://www.w3.org/2000/svg">
<path d="M27.8094 4.20995C25.9038 4.21243 24.0769 4.95459 22.7294 6.27367C21.3819 7.59275 20.6238 9.38109 20.6212 11.2466C20.6212 11.3029 20.6212 11.3592 20.6212 11.4155C20.6212 11.4718 20.6212 11.4718 20.6212 11.4999C20.587 13.7814 19.6371 15.958 17.9769 17.5595C16.3167 19.1609 14.0795 20.0587 11.7486 20.0587C9.41781 20.0587 7.18058 19.1609 5.52037 17.5595C3.86016 15.958 2.9103 13.7814 2.87604 11.4999V2.81539H11.7496C12.131 2.81539 12.4967 2.66708 12.7664 2.40309C13.0361 2.13909 13.1876 1.78104 13.1876 1.4077C13.1876 1.03435 13.0361 0.676299 12.7664 0.412305C12.4967 0.148311 12.131 1.11265e-08 11.7496 0H1.43802C1.05663 0 0.690868 0.148311 0.421186 0.412305C0.151505 0.676299 4.43384e-10 1.03435 4.43384e-10 1.4077V11.4999C-2.34943e-05 14.1482 0.933684 16.7154 2.64341 18.7678C4.35314 20.8202 6.7341 22.232 9.38413 22.7648C12.0342 23.2976 14.7908 22.9188 17.1885 21.6922C19.5863 20.4657 21.478 18.4666 22.5443 16.0327C23.3564 16.8888 24.3735 17.5336 25.5038 17.9087C26.634 18.2838 27.8419 18.3776 29.0185 18.1814C30.195 17.9853 31.3031 17.5055 32.2429 16.7853C33.1826 16.0652 33.9244 15.1273 34.4013 14.0563C34.8781 12.9853 35.0751 11.8149 34.9744 10.6508C34.8736 9.48667 34.4784 8.36541 33.8243 7.3882C33.1702 6.41099 32.2778 5.60858 31.2278 5.05339C30.1777 4.49819 29.0029 4.20768 27.8094 4.20807V4.20995ZM27.8094 15.4715C26.9562 15.4715 26.1221 15.2238 25.4126 14.7598C24.7032 14.2958 24.1503 13.6362 23.8237 12.8645C23.4972 12.0929 23.4118 11.2437 23.5782 10.4245C23.7447 9.60535 24.1556 8.85287 24.7589 8.26226C25.3622 7.67165 26.1309 7.26944 26.9678 7.10649C27.8046 6.94354 28.672 7.02717 29.4603 7.34681C30.2486 7.66644 30.9224 8.20773 31.3964 8.90221C31.8705 9.59669 32.1235 10.4132 32.1235 11.2484C32.122 12.3678 31.6669 13.4409 30.8581 14.2323C30.0493 15.0237 28.9529 15.4687 27.8094 15.4696V15.4715Z" fill="#505F2E"/>
</svg>
