<svg width="115" height="27" viewBox="0 0 115 27" fill="none" xmlns="http://www.w3.org/2000/svg">
<path d="M22.2475 8.29474C20.723 8.29669 19.2615 8.8775 18.1835 9.90983C17.1055 10.9422 16.499 12.3417 16.497 13.8017C16.497 13.8457 16.497 13.8898 16.497 13.9339C16.497 13.9779 16.497 13.9779 16.497 14C16.4696 15.7854 15.7097 17.4889 14.3815 18.7422C13.0533 19.9955 11.2636 20.6981 9.39891 20.6981C7.53425 20.6981 5.74446 19.9955 4.4163 18.7422C3.08813 17.4889 2.32824 15.7854 2.30083 14V7.20335H9.39967C9.70478 7.20335 9.99739 7.08728 10.2131 6.88068C10.4289 6.67407 10.5501 6.39386 10.5501 6.10168C10.5501 5.80949 10.4289 5.52928 10.2131 5.32267C9.99739 5.11607 9.70478 5 9.39967 5H1.15042C0.845307 5 0.552694 5.11607 0.336949 5.32267C0.121204 5.52928 3.54707e-10 5.80949 3.54707e-10 6.10168V14C-1.87954e-05 16.0725 0.746948 18.0816 2.11473 19.6878C3.48251 21.2941 5.38728 22.399 7.50731 22.816C9.62733 23.2329 11.8327 22.9364 13.7508 21.9765C15.669 21.0166 17.1824 19.4522 18.0355 17.5474C18.6851 18.2174 19.4988 18.7219 20.403 19.0155C21.3072 19.3091 22.2736 19.3824 23.2148 19.2289C24.156 19.0755 25.0425 18.7 25.7943 18.1364C26.5461 17.5727 27.1395 16.8387 27.521 16.0006C27.9025 15.1624 28.0601 14.2465 27.9795 13.3354C27.8989 12.4243 27.5827 11.5468 27.0594 10.7821C26.5362 10.0173 25.8223 9.38932 24.9822 8.95483C24.1421 8.52033 23.2023 8.29297 22.2475 8.29328V8.29474ZM22.2475 17.1081C21.5649 17.1081 20.8977 16.9143 20.3301 16.5512C19.7626 16.188 19.3202 15.6718 19.059 15.0679C18.7978 14.464 18.7294 13.7995 18.8626 13.1583C18.9958 12.5172 19.3245 11.9283 19.8071 11.4661C20.2898 11.0039 20.9047 10.6891 21.5742 10.5616C22.2437 10.4341 22.9376 10.4995 23.5683 10.7497C24.1989 10.9998 24.7379 11.4234 25.1171 11.9669C25.4964 12.5105 25.6988 13.1494 25.6988 13.8031C25.6976 14.6792 25.3335 15.519 24.6865 16.1383C24.0395 16.7576 23.1623 17.1059 22.2475 17.1067V17.1081Z" fill="white"/>
<path d="M46.2 21.3C45.3467 21.3 44.68 21.0867 44.2 20.66C43.7333 20.2333 43.5 19.5533 43.5 18.62V11.78H42.12V11.58L42.6 11.5C43.0133 11.4067 43.3667 11.2733 43.66 11.1C43.9667 10.9267 44.2667 10.6933 44.56 10.4L46.2 8.58H46.4L46.34 11.38H48.58V11.78H46.32V18.98C46.32 19.4467 46.42 19.8 46.62 20.04C46.8333 20.28 47.1 20.4 47.42 20.4C47.7 20.4 47.9467 20.3333 48.16 20.2C48.3733 20.0533 48.5867 19.86 48.8 19.62L49 19.82C48.7333 20.2733 48.3667 20.6333 47.9 20.9C47.4333 21.1667 46.8667 21.3 46.2 21.3ZM52.0266 10.04C51.5732 10.04 51.1866 9.9 50.8666 9.62C50.5599 9.32667 50.4066 8.96 50.4066 8.52C50.4066 8.06667 50.5599 7.7 50.8666 7.42C51.1866 7.14 51.5732 7 52.0266 7C52.4799 7 52.8599 7.14 53.1666 7.42C53.4732 7.7 53.6266 8.06667 53.6266 8.52C53.6266 8.96 53.4732 9.32667 53.1666 9.62C52.8599 9.9 52.4799 10.04 52.0266 10.04ZM49.6666 21V20.8L49.9466 20.72C50.2132 20.64 50.3932 20.52 50.4866 20.36C50.5932 20.2 50.6466 19.9867 50.6466 19.72V13.46C50.6466 13.18 50.5932 12.9733 50.4866 12.84C50.3932 12.6933 50.2132 12.5933 49.9466 12.54L49.6666 12.48V12.28L53.3266 11.1L53.5266 11.3L53.4666 14.14V19.74C53.4666 20.0067 53.5132 20.22 53.6066 20.38C53.7132 20.54 53.8932 20.66 54.1466 20.74L54.3466 20.8V21H49.6666ZM55.232 21V20.8L55.512 20.72C55.7654 20.6533 55.9387 20.54 56.032 20.38C56.1387 20.22 56.1987 20.0067 56.212 19.74V13.48C56.212 13.1867 56.1654 12.9733 56.072 12.84C55.9787 12.6933 55.7987 12.5933 55.532 12.54L55.232 12.46V12.26L58.652 11.1L58.852 11.3L59.012 12.66C59.452 12.22 59.952 11.8467 60.512 11.54C61.0854 11.2333 61.6787 11.08 62.292 11.08C62.932 11.08 63.4454 11.2133 63.832 11.48C64.2187 11.7333 64.512 12.1333 64.712 12.68C65.232 12.1867 65.792 11.8 66.392 11.52C67.0054 11.2267 67.5987 11.08 68.172 11.08C69.1187 11.08 69.812 11.3067 70.252 11.76C70.7054 12.2133 70.932 12.9267 70.932 13.9V19.76C70.932 20.28 71.172 20.6067 71.652 20.74L71.872 20.8V21H67.252V20.8L67.452 20.74C67.7054 20.66 67.8787 20.54 67.972 20.38C68.0787 20.22 68.132 20.0067 68.132 19.74V13.62C68.132 13.06 68.032 12.68 67.832 12.48C67.632 12.2667 67.312 12.16 66.872 12.16C66.5254 12.16 66.1854 12.24 65.852 12.4C65.532 12.5467 65.192 12.7733 64.832 13.08C64.8987 13.2933 64.9387 13.5267 64.952 13.78C64.9787 14.0333 64.992 14.3 64.992 14.58V19.76C65.0054 20.28 65.2454 20.6067 65.712 20.74L65.892 20.8V21H61.252V20.8L61.532 20.72C61.7854 20.64 61.9587 20.5267 62.052 20.38C62.1587 20.22 62.212 20.0067 62.212 19.74V13.64C62.212 13.1067 62.112 12.7267 61.912 12.5C61.7254 12.2733 61.3987 12.16 60.932 12.16C60.6254 12.16 60.3187 12.24 60.012 12.4C59.7054 12.5467 59.3854 12.7667 59.052 13.06V19.76C59.052 20.28 59.2854 20.6067 59.752 20.74L59.932 20.8V21H55.232ZM77.6739 11.08C78.5406 11.08 79.2806 11.26 79.8939 11.62C80.5072 11.9667 80.9739 12.4467 81.2939 13.06C81.6272 13.66 81.7939 14.3467 81.7939 15.12C81.7939 15.2667 81.7872 15.42 81.7739 15.58C81.7606 15.7267 81.7339 15.86 81.6939 15.98H75.7339C75.7472 17.42 76.0006 18.46 76.4939 19.1C77.0006 19.7267 77.7472 20.04 78.7339 20.04C79.4006 20.04 79.9406 19.9333 80.3539 19.72C80.7672 19.5067 81.1539 19.1933 81.5139 18.78L81.7139 18.96C81.3006 19.6933 80.7472 20.2667 80.0539 20.68C79.3739 21.0933 78.5539 21.3 77.5939 21.3C76.6472 21.3 75.8072 21.1 75.0739 20.7C74.3406 20.2867 73.7672 19.7 73.3539 18.94C72.9406 18.18 72.7339 17.2733 72.7339 16.22C72.7339 15.1267 72.9739 14.2 73.4539 13.44C73.9339 12.6667 74.5472 12.08 75.2939 11.68C76.0539 11.28 76.8472 11.08 77.6739 11.08ZM77.6139 11.48C77.2272 11.48 76.8939 11.6 76.6139 11.84C76.3472 12.0667 76.1339 12.48 75.9739 13.08C75.8272 13.6667 75.7472 14.5 75.7339 15.58H79.1539C79.2872 14.1267 79.2339 13.08 78.9939 12.44C78.7539 11.8 78.2939 11.48 77.6139 11.48ZM82.7153 24.2L88.0553 6.8H88.5353L83.1953 24.2H82.7153ZM93.7686 21.3C92.7553 21.3 91.8753 21.0933 91.1286 20.68C90.3819 20.2533 89.8019 19.6533 89.3886 18.88C88.9886 18.1067 88.7886 17.2 88.7886 16.16C88.7886 15.12 89.0019 14.22 89.4286 13.46C89.8686 12.7 90.4619 12.1133 91.2086 11.7C91.9686 11.2867 92.8219 11.08 93.7686 11.08C94.7153 11.08 95.5619 11.2867 96.3086 11.7C97.0553 12.1 97.6419 12.68 98.0686 13.44C98.5086 14.2 98.7286 15.1067 98.7286 16.16C98.7286 17.2133 98.5219 18.1267 98.1086 18.9C97.7086 19.66 97.1353 20.2533 96.3886 20.68C95.6553 21.0933 94.7819 21.3 93.7686 21.3ZM93.7686 20.9C94.2353 20.9 94.6086 20.7667 94.8886 20.5C95.1686 20.2333 95.3686 19.76 95.4886 19.08C95.6219 18.4 95.6886 17.44 95.6886 16.2C95.6886 14.9467 95.6219 13.98 95.4886 13.3C95.3686 12.62 95.1686 12.1467 94.8886 11.88C94.6086 11.6133 94.2353 11.48 93.7686 11.48C93.3019 11.48 92.9219 11.6133 92.6286 11.88C92.3486 12.1467 92.1419 12.62 92.0086 13.3C91.8886 13.98 91.8286 14.9467 91.8286 16.2C91.8286 17.44 91.8886 18.4 92.0086 19.08C92.1419 19.76 92.3486 20.2333 92.6286 20.5C92.9219 20.7667 93.3019 20.9 93.7686 20.9ZM99.647 21V20.8L99.907 20.74C100.16 20.66 100.36 20.54 100.507 20.38C100.654 20.22 100.727 20.0067 100.727 19.74C100.727 19.2467 100.727 18.76 100.727 18.28C100.74 17.7867 100.747 17.2933 100.747 16.8V11.78H99.627V11.56L100.067 11.48C100.347 11.44 100.54 11.3467 100.647 11.2C100.754 11.04 100.84 10.82 100.907 10.54C101.04 10.02 101.234 9.56667 101.487 9.18C101.754 8.78 102.054 8.41333 102.387 8.08C102.894 7.6 103.427 7.26667 103.987 7.08C104.56 6.88 105.12 6.78 105.667 6.78C106.014 6.78 106.347 6.83333 106.667 6.94C107 7.03333 107.267 7.18667 107.467 7.4C107.68 7.6 107.787 7.86667 107.787 8.2C107.787 8.56 107.68 8.84667 107.467 9.06C107.267 9.26 106.967 9.36 106.567 9.36C106.247 9.36 105.954 9.27333 105.687 9.1C105.42 8.92667 105.16 8.62 104.907 8.18L104.627 7.84C104.48 7.64 104.327 7.54667 104.167 7.56C104.02 7.57333 103.92 7.68667 103.867 7.9C103.774 8.38 103.7 8.93333 103.647 9.56C103.607 10.1733 103.587 10.78 103.587 11.38H106.927C107.207 11.38 107.4 11.3067 107.507 11.16C107.614 11 107.7 10.7933 107.767 10.54C107.9 10.02 108.094 9.56667 108.347 9.18C108.614 8.78 108.914 8.41333 109.247 8.08C109.754 7.6 110.287 7.26667 110.847 7.08C111.42 6.88 111.98 6.78 112.527 6.78C112.887 6.78 113.227 6.83333 113.547 6.94C113.867 7.03333 114.134 7.18667 114.347 7.4C114.56 7.6 114.667 7.86667 114.667 8.2C114.667 8.56 114.56 8.84667 114.347 9.06C114.134 9.26 113.827 9.36 113.427 9.36C113.107 9.36 112.814 9.27333 112.547 9.1C112.28 8.92667 112.02 8.62 111.767 8.18L111.487 7.84C111.34 7.64 111.194 7.54667 111.047 7.56C110.9 7.57333 110.794 7.68667 110.727 7.9C110.634 8.38 110.56 8.93333 110.507 9.56C110.467 10.1733 110.447 10.78 110.447 11.38H112.687V11.78H110.447V16.8C110.447 17.28 110.447 17.7667 110.447 18.26C110.447 18.74 110.447 19.22 110.447 19.7C110.46 20.2067 110.734 20.5333 111.267 20.68L111.767 20.8V21H106.507V20.8L106.767 20.74C107.02 20.66 107.22 20.54 107.367 20.38C107.514 20.22 107.594 20.0067 107.607 19.74C107.607 19.2467 107.607 18.76 107.607 18.28C107.607 17.7867 107.607 17.2933 107.607 16.8V11.78H103.587V16.8C103.587 17.28 103.587 17.7667 103.587 18.26C103.587 18.74 103.587 19.22 103.587 19.7C103.6 20.2067 103.867 20.5333 104.387 20.68L104.887 20.8V21H99.647Z" fill="white"/>
</svg>
