<svg width="115" height="20" viewBox="0 0 115 20" fill="none" xmlns="http://www.w3.org/2000/svg">
<path d="M22.2475 3.29474C20.723 3.29669 19.2615 3.8775 18.1835 4.90983C17.1055 5.94215 16.499 7.34173 16.497 8.80165C16.497 8.84572 16.497 8.88979 16.497 8.93385C16.497 8.97792 16.497 8.97792 16.497 8.99996C16.4696 10.7854 15.7097 12.4889 14.3815 13.7422C13.0533 14.9955 11.2636 15.6981 9.39891 15.6981C7.53425 15.6981 5.74446 14.9955 4.4163 13.7422C3.08813 12.4889 2.32824 10.7854 2.30083 8.99996V2.20335H9.39967C9.70478 2.20335 9.99739 2.08728 10.2131 1.88068C10.4289 1.67407 10.5501 1.39386 10.5501 1.10168C10.5501 0.809493 10.4289 0.529278 10.2131 0.322674C9.99739 0.116069 9.70478 8.70772e-09 9.39967 0H1.15042C0.845307 0 0.552694 0.116069 0.336949 0.322674C0.121204 0.529278 3.54707e-10 0.809493 3.54707e-10 1.10168V8.99996C-1.87954e-05 11.0725 0.746948 13.0816 2.11473 14.6878C3.48251 16.2941 5.38728 17.399 7.50731 17.816C9.62733 18.2329 11.8327 17.9364 13.7508 16.9765C15.669 16.0166 17.1824 14.4522 18.0355 12.5474C18.6851 13.2174 19.4988 13.7219 20.403 14.0155C21.3072 14.3091 22.2736 14.3824 23.2148 14.2289C24.156 14.0755 25.0425 13.7 25.7943 13.1364C26.5461 12.5727 27.1395 11.8387 27.521 11.0006C27.9025 10.1624 28.0601 9.24646 27.9795 8.33541C27.8989 7.42435 27.5827 6.54684 27.0594 5.78207C26.5362 5.01729 25.8223 4.38932 24.9822 3.95483C24.1421 3.52033 23.2023 3.29297 22.2475 3.29328V3.29474ZM22.2475 12.1081C21.5649 12.1081 20.8977 11.9143 20.3301 11.5512C19.7626 11.188 19.3202 10.6718 19.059 10.0679C18.7978 9.46399 18.7294 8.79946 18.8626 8.15834C18.9958 7.51723 19.3245 6.92833 19.8071 6.46612C20.2898 6.0039 20.9047 5.68913 21.5742 5.5616C22.2437 5.43408 22.9376 5.49953 23.5683 5.74968C24.1989 5.99982 24.7379 6.42344 25.1171 6.96695C25.4964 7.51046 25.6988 8.14945 25.6988 8.80312C25.6976 9.67918 25.3335 10.519 24.6865 11.1383C24.0395 11.7576 23.1623 12.1059 22.2475 12.1067V12.1081Z" fill="#505F2E"/>
<path d="M46.2 16.2998C45.3467 16.2998 44.68 16.0865 44.2 15.6598C43.7333 15.2331 43.5 14.5531 43.5 13.6198V6.77979H42.12V6.57979L42.6 6.49979C43.0133 6.40645 43.3667 6.27312 43.66 6.09978C43.9667 5.92645 44.2667 5.69312 44.56 5.39979L46.2 3.57978H46.4L46.34 6.37978H48.58V6.77979H46.32V13.9798C46.32 14.4465 46.42 14.7998 46.62 15.0398C46.8333 15.2798 47.1 15.3998 47.42 15.3998C47.7 15.3998 47.9467 15.3331 48.16 15.1998C48.3733 15.0531 48.5867 14.8598 48.8 14.6198L49 14.8198C48.7333 15.2731 48.3667 15.6331 47.9 15.8998C47.4333 16.1665 46.8667 16.2998 46.2 16.2998Z" fill="#505F2E"/>
<path d="M52.0266 5.03978C51.5732 5.03978 51.1866 4.89978 50.8666 4.61979C50.5599 4.32645 50.4066 3.95978 50.4066 3.51978C50.4066 3.06645 50.5599 2.69978 50.8666 2.41979C51.1866 2.13978 51.5732 1.99978 52.0266 1.99978C52.4799 1.99978 52.8599 2.13978 53.1666 2.41979C53.4732 2.69978 53.6266 3.06645 53.6266 3.51978C53.6266 3.95978 53.4732 4.32645 53.1666 4.61979C52.8599 4.89978 52.4799 5.03978 52.0266 5.03978ZM49.6666 15.9998V15.7998L49.9466 15.7198C50.2132 15.6398 50.3932 15.5198 50.4866 15.3598C50.5932 15.1998 50.6466 14.9865 50.6466 14.7198V8.45979C50.6466 8.17979 50.5932 7.97312 50.4866 7.83978C50.3932 7.69312 50.2132 7.59312 49.9466 7.53979L49.6666 7.47978V7.27979L53.3266 6.09978L53.5266 6.29978L53.4666 9.13978V14.7398C53.4666 15.0065 53.5132 15.2198 53.6066 15.3798C53.7132 15.5398 53.8932 15.6598 54.1466 15.7398L54.3466 15.7998V15.9998H49.6666Z" fill="#505F2E"/>
<path d="M55.232 15.9998V15.7998L55.512 15.7198C55.7654 15.6531 55.9387 15.5398 56.032 15.3798C56.1387 15.2198 56.1987 15.0065 56.212 14.7398V8.47978C56.212 8.18645 56.1654 7.97312 56.072 7.83978C55.9787 7.69312 55.7987 7.59312 55.532 7.53979L55.232 7.45979V7.25979L58.652 6.09978L58.852 6.29978L59.012 7.65979C59.452 7.21979 59.952 6.84645 60.512 6.53979C61.0854 6.23312 61.6787 6.07979 62.292 6.07979C62.932 6.07979 63.4454 6.21312 63.832 6.47978C64.2187 6.73312 64.512 7.13312 64.712 7.67979C65.232 7.18645 65.792 6.79979 66.392 6.51978C67.0054 6.22645 67.5987 6.07979 68.172 6.07979C69.1187 6.07979 69.812 6.30645 70.252 6.75979C70.7054 7.21312 70.932 7.92645 70.932 8.89979V14.7598C70.932 15.2798 71.172 15.6065 71.652 15.7398L71.872 15.7998V15.9998H67.252V15.7998L67.452 15.7398C67.7054 15.6598 67.8787 15.5398 67.972 15.3798C68.0787 15.2198 68.132 15.0065 68.132 14.7398V8.61979C68.132 8.05979 68.032 7.67979 67.832 7.47978C67.632 7.26645 67.312 7.15979 66.872 7.15979C66.5254 7.15979 66.1854 7.23978 65.852 7.39979C65.532 7.54645 65.192 7.77312 64.832 8.07979C64.8987 8.29312 64.9387 8.52645 64.952 8.77979C64.9787 9.03312 64.992 9.29979 64.992 9.57979V14.7598C65.0054 15.2798 65.2454 15.6065 65.712 15.7398L65.892 15.7998V15.9998H61.252V15.7998L61.532 15.7198C61.7854 15.6398 61.9587 15.5265 62.052 15.3798C62.1587 15.2198 62.212 15.0065 62.212 14.7398V8.63978C62.212 8.10645 62.112 7.72645 61.912 7.49979C61.7254 7.27312 61.3987 7.15979 60.932 7.15979C60.6254 7.15979 60.3187 7.23978 60.012 7.39979C59.7054 7.54645 59.3854 7.76645 59.052 8.05978V14.7598C59.052 15.2798 59.2854 15.6065 59.752 15.7398L59.932 15.7998V15.9998H55.232Z" fill="#505F2E"/>
<path d="M77.6739 6.07979C78.5406 6.07979 79.2806 6.25979 79.8939 6.61979C80.5072 6.96645 80.9739 7.44645 81.2939 8.05978C81.6272 8.65978 81.7939 9.34645 81.7939 10.1198C81.7939 10.2665 81.7872 10.4198 81.7739 10.5798C81.7606 10.7265 81.7339 10.8598 81.6939 10.9798H75.7339C75.7472 12.4198 76.0006 13.4598 76.4939 14.0998C77.0006 14.7265 77.7472 15.0398 78.7339 15.0398C79.4006 15.0398 79.9406 14.9331 80.3539 14.7198C80.7672 14.5065 81.1539 14.1931 81.5139 13.7798L81.7139 13.9598C81.3006 14.6931 80.7472 15.2665 80.0539 15.6798C79.3739 16.0931 78.5539 16.2998 77.5939 16.2998C76.6472 16.2998 75.8072 16.0998 75.0739 15.6998C74.3406 15.2865 73.7672 14.6998 73.3539 13.9398C72.9406 13.1798 72.7339 12.2731 72.7339 11.2198C72.7339 10.1265 72.9739 9.19979 73.4539 8.43979C73.9339 7.66645 74.5472 7.07978 75.2939 6.67978C76.0539 6.27978 76.8472 6.07979 77.6739 6.07979ZM77.6139 6.47978C77.2272 6.47978 76.8939 6.59978 76.6139 6.83978C76.3472 7.06645 76.1339 7.47979 75.9739 8.07979C75.8272 8.66645 75.7472 9.49979 75.7339 10.5798H79.1539C79.2872 9.12645 79.2339 8.07979 78.9939 7.43979C78.7539 6.79979 78.2939 6.47978 77.6139 6.47978Z" fill="#505F2E"/>
<path d="M82.7153 19.1998L88.0553 1.79978H88.5353L83.1953 19.1998H82.7153Z" fill="#505F2E"/>
<path d="M93.7686 16.2998C92.7553 16.2998 91.8753 16.0931 91.1286 15.6798C90.3819 15.2531 89.8019 14.6531 89.3886 13.8798C88.9886 13.1065 88.7886 12.1998 88.7886 11.1598C88.7886 10.1198 89.0019 9.21979 89.4286 8.45979C89.8686 7.69979 90.4619 7.11312 91.2086 6.69978C91.9686 6.28645 92.8219 6.07979 93.7686 6.07979C94.7153 6.07979 95.5619 6.28645 96.3086 6.69978C97.0553 7.09978 97.6419 7.67978 98.0686 8.43979C98.5086 9.19979 98.7286 10.1065 98.7286 11.1598C98.7286 12.2131 98.5219 13.1265 98.1086 13.8998C97.7086 14.6598 97.1353 15.2531 96.3886 15.6798C95.6553 16.0931 94.7819 16.2998 93.7686 16.2998ZM93.7686 15.8998C94.2353 15.8998 94.6086 15.7665 94.8886 15.4998C95.1686 15.2331 95.3686 14.7598 95.4886 14.0798C95.6219 13.3998 95.6886 12.4398 95.6886 11.1998C95.6886 9.94645 95.6219 8.97978 95.4886 8.29978C95.3686 7.61978 95.1686 7.14645 94.8886 6.87978C94.6086 6.61312 94.2353 6.47978 93.7686 6.47978C93.3019 6.47978 92.9219 6.61312 92.6286 6.87978C92.3486 7.14645 92.1419 7.61978 92.0086 8.29978C91.8886 8.97978 91.8286 9.94645 91.8286 11.1998C91.8286 12.4398 91.8886 13.3998 92.0086 14.0798C92.1419 14.7598 92.3486 15.2331 92.6286 15.4998C92.9219 15.7665 93.3019 15.8998 93.7686 15.8998Z" fill="#505F2E"/>
<path d="M99.647 15.9998V15.7998L99.907 15.7398C100.16 15.6598 100.36 15.5398 100.507 15.3798C100.654 15.2198 100.727 15.0065 100.727 14.7398C100.727 14.2465 100.727 13.7598 100.727 13.2798C100.74 12.7865 100.747 12.2931 100.747 11.7998V6.77979H99.627V6.55978L100.067 6.47978C100.347 6.43978 100.54 6.34645 100.647 6.19979C100.754 6.03978 100.84 5.81978 100.907 5.53979C101.04 5.01978 101.234 4.56645 101.487 4.17978C101.754 3.77978 102.054 3.41312 102.387 3.07979C102.894 2.59979 103.427 2.26645 103.987 2.07978C104.56 1.87978 105.12 1.77979 105.667 1.77979C106.014 1.77979 106.347 1.83312 106.667 1.93979C107 2.03312 107.267 2.18645 107.467 2.39979C107.68 2.59978 107.787 2.86645 107.787 3.19978C107.787 3.55978 107.68 3.84645 107.467 4.05978C107.267 4.25978 106.967 4.35979 106.567 4.35979C106.247 4.35979 105.954 4.27312 105.687 4.09978C105.42 3.92645 105.16 3.61978 104.907 3.17978L104.627 2.83978C104.48 2.63978 104.327 2.54645 104.167 2.55978C104.02 2.57312 103.92 2.68645 103.867 2.89979C103.774 3.37979 103.7 3.93312 103.647 4.55978C103.607 5.17312 103.587 5.77978 103.587 6.37978H106.927C107.207 6.37978 107.4 6.30645 107.507 6.15979C107.614 5.99979 107.7 5.79312 107.767 5.53979C107.9 5.01978 108.094 4.56645 108.347 4.17978C108.614 3.77978 108.914 3.41312 109.247 3.07979C109.754 2.59979 110.287 2.26645 110.847 2.07978C111.42 1.87978 111.98 1.77979 112.527 1.77979C112.887 1.77979 113.227 1.83312 113.547 1.93979C113.867 2.03312 114.134 2.18645 114.347 2.39979C114.56 2.59978 114.667 2.86645 114.667 3.19978C114.667 3.55978 114.56 3.84645 114.347 4.05978C114.134 4.25978 113.827 4.35979 113.427 4.35979C113.107 4.35979 112.814 4.27312 112.547 4.09978C112.28 3.92645 112.02 3.61978 111.767 3.17978L111.487 2.83978C111.34 2.63978 111.194 2.54645 111.047 2.55978C110.9 2.57312 110.794 2.68645 110.727 2.89979C110.634 3.37979 110.56 3.93312 110.507 4.55978C110.467 5.17312 110.447 5.77978 110.447 6.37978H112.687V6.77979H110.447V11.7998C110.447 12.2798 110.447 12.7665 110.447 13.2598C110.447 13.7398 110.447 14.2198 110.447 14.6998C110.46 15.2065 110.734 15.5331 111.267 15.6798L111.767 15.7998V15.9998H106.507V15.7998L106.767 15.7398C107.02 15.6598 107.22 15.5398 107.367 15.3798C107.514 15.2198 107.594 15.0065 107.607 14.7398C107.607 14.2465 107.607 13.7598 107.607 13.2798C107.607 12.7865 107.607 12.2931 107.607 11.7998V6.77979H103.587V11.7998C103.587 12.2798 103.587 12.7665 103.587 13.2598C103.587 13.7398 103.587 14.2198 103.587 14.6998C103.6 15.2065 103.867 15.5331 104.387 15.6798L104.887 15.7998V15.9998H99.647Z" fill="#505F2E"/>
</svg>
